:FULLY-SPECIFIED
:FORCE-ALL-JOINTS-BE-3DOF
:DEGREES
951
root 1.16962 15.2956 32.7476 6.81051 -3.0901 364.837
lfemur 6.84506 0.904567 3.93756
ltibia 0.328693 0 0
lfoot -28.4954 -14.6033 0
ltoes -31.3372 0 0
rfemur -31.544 -15.701 -7.56457
rtibia 48.985 0 0
rfoot -20.5254 4.30001 0
rtoes -42.5416 0 0
lowerback -2.24617 -0.399281 0.645854
upperback -1.47157 -0.553173 -6.8881
thorax -0.333921 -0.317652 -7.56001
lowerneck -6.63129 0.478601 4.41623
upperneck 1.01337 0.183117 3.37442
head 1.43378 0.185573 0.314623
lclavicle -7.95685e-15 -2.7698e-14 0
lhumerus -59.1005 -43.8999 112.736
lradius 55.5245 0 0
lwrist 25.1529 0 0
lhand 40.1256 24.6821 0
lfingers 7.12502 0 0
lthumb 62.494 35.5063 0
rclavicle -7.95685e-15 -2.7698e-14 0
rhumerus 3.47388 -34.8061 -2.33158
rradius 29.0763 0 0
rwrist -16.0532 0 0
rhand -39.1552 -49.8568 0
rfingers 7.12502 0 0
rthumb -12.1523 -799.463 0
952
root 1.16148 15.285 32.7391 6.76949 -3.2549 364.8
lfemur 6.97751 1.03613 4.02053
ltibia 0.307529 0 0
lfoot -28.5936 -14.4591 0
ltoes -31.461 0 0
rfemur -31.7333 -15.7557 -7.4577
rtibia 49.1695 0 0
rfoot -20.6924 4.46232 0
rtoes -42.4445 0 0
lowerback -2.20727 -0.407355 0.652418
upperback -1.44725 -0.564103 -6.8407
thorax -0.331464 -0.322535 -7.51261
lowerneck -6.6076 0.528983 4.50256
upperneck 0.955012 0.247509 3.37692
head 1.41169 0.216041 0.302769
lclavicle -5.73573e-15 -2.30474e-14 0
lhumerus -59.054 -43.8936 112.831
lradius 55.4757 0 0
lwrist 25.1423 0 0
lhand 39.9639 24.7023 0
lfingers 7.12502 0 0
lthumb 62.3586 35.69 0
rclavicle -5.73573e-15 -2.30474e-14 0
rhumerus 3.53836 -34.2533 -2.11057
rradius 29.038 0 0
rwrist -15.8407 0 0
rhand -38.6962 -49.6658 0
rfingers 7.12502 0 0
rthumb -11.7095 -799.292 0
953
root 1.15249 15.2733 32.7297 6.72414 -3.43711 364.758
lfemur 7.12396 1.18159 4.11226
ltibia 0.284127 0 0
lfoot -28.7021 -14.2996 0
ltoes -31.5979 0 0
rfemur -31.9426 -15.8163 -7.33953
rtibia 49.3736 0 0
rfoot -20.877 4.64179 0
rtoes -42.3372 0 0
lowerback -2.16427 -0.416282 0.659676
upperback -1.42037 -0.576188 -6.7883
thorax -0.328747 -0.327934 -7.46019
lowerneck -6.58141 0.584689 4.59801
upperneck 0.890484 0.318705 3.37968
head 1.38726 0.249729 0.289663
lclavicle -3.2799e-15 -1.79053e-14 0
lhumerus -59.0026 -43.8865 112.936
lradius 55.4217 0 0
lwrist 25.1305 0 0
lhand 39.7852 24.7246 0
lfingers 7.12502 0 0
lthumb 62.2088 35.893 0
rclavicle -3.2799e-15 -1.79053e-14 0
rhumerus 3.60965 -33.642 -1.86621
rradius 28.9956 0 0
rwrist -15.6057 0 0
rhand -38.1887 -49.4547 0
rfingers 7.12502 0 0
rthumb -11.2198 -799.103 0
954
root 1.14283 15.2607 32.7196 6.67541 -3.63287 364.713
lfemur 7.2813 1.33786 4.21081
ltibia 0.258987 0 0
lfoot -28.8187 -14.1282 0
ltoes -31.7449 0 0
rfemur -32.1675 -15.8814 -7.21258
rtibia 49.5928 0 0
rfoot -21.0754 4.8346 0
rtoes -42.222 0 0
lowerback -2.11807 -0.425873 0.667473
upperback -1.39149 -0.589171 -6.732
thorax -0.325829 -0.333735 -7.40388
lowerneck -6.55327 0.644536 4.70055
upperneck 0.821159 0.395194 3.38265
head 1.36102 0.28592 0.275583
lclavicle -6.41515e-16 -1.2381e-14 0
lhumerus -58.9474 -43.8789 113.05
lradius 55.3637 0 0
lwrist 25.1179 0 0
lhand 39.5932 24.7485 0
lfingers 7.12502 0 0
lthumb 62.0479 36.1112 0
rclavicle -6.41515e-16 -1.2381e-14 0
rhumerus 3.68624 -32.9854 -1.60369
rradius 28.95 0 0
rwrist -15.3533 0 0
rhand -37.6435 -49.2279 0
rfingers 7.12502 0 0
rthumb -10.6938 -798.9 0
955
root 1.1327 15.2475 32.7089 6.62428 -3.8383 364.667
lfemur 7.44641 1.50186 4.31424
ltibia 0.232603 0 0
lfoot -28.9411 -13.9484 0
ltoes -31.8992 0 0
rfemur -32.4035 -15.9497 -7.07936
rtibia 49.8228 0 0
rfoot -21.2836 5.03693 0
rtoes -42.101 0 0
lowerback -2.06958 -0.435937 0.675655
upperback -1.36117 -0.602796 -6.67291
thorax -0.322766 -0.339822 -7.34478
lowerneck -6.52374 0.707341 4.80817
upperneck 0.748408 0.475463 3.38576
head 1.33348 0.323901 0.260806
lclavicle 2.12727e-15 -6.58362e-15 0
lhumerus -58.8895 -43.871 113.168
lradius 55.3029 0 0
lwrist 25.1047 0 0
lhand 39.3917 24.7736 0
lfingers 7.12502 0 0
lthumb 61.8791 36.3402 0
rclavicle 2.12727e-15 -6.58362e-15 0
rhumerus 3.76662 -32.2962 -1.32819
rradius 28.9022 0 0
rwrist -15.0884 0 0
rhand -37.0713 -48.9898 0
rfingers 7.12502 0 0
rthumb -10.1417 -798.686 0
956
root 1.12227 15.2339 32.698 6.5717 -4.04954 364.618
lfemur 7.61619 1.6705 4.42058
ltibia 0.205475 0 0
lfoot -29.0669 -13.7635 0
ltoes -32.0579 0 0
rfemur -32.6461 -16.0199 -6.94237
rtibia 50.0593 0 0
rfoot -21.4976 5.24499 0
rtoes -41.9766 0 0
lowerback -2.01973 -0.446287 0.684069
upperback -1.33001 -0.616806 -6.61216
thorax -0.319617 -0.346081 -7.28401
lowerneck -6.49338 0.771921 4.91883
upperneck 0.673601 0.558 3.38896
head 1.30516 0.362955 0.245612
lclavicle 4.9743e-15 -6.22443e-16 0
lhumerus -58.8299 -43.8628 113.29
lradius 55.2404 0 0
lwrist 25.0911 0 0
lhand 39.1845 24.7994 0
lfingers 7.12502 0 0
lthumb 61.7055 36.5756 0
rclavicle 4.9743e-15 -6.22443e-16 0
rhumerus 3.84928 -31.5876 -1.04491
rradius 28.8531 0 0
rwrist -14.816 0 0
rhand -36.483 -48.7451 0
rfingers 7.12502 0 0
rthumb -9.5741 -798.467 0
957
root 1.11176 15.2201 32.687 6.51865 -4.26271 364.57
lfemur 7.78752 1.84067 4.52791
ltibia 0.178097 0 0
lfoot -29.1939 -13.5768 0
ltoes -32.2181 0 0
rfemur -32.891 -16.0908 -6.80412
rtibia 50.2981 0 0
rfoot -21.7137 5.45494 0
rtoes -41.8511 0 0
lowerback -1.96941 -0.45673 0.69256
upperback -1.29855 -0.630944 -6.55085
thorax -0.316439 -0.352397 -7.22269
lowerneck -6.46273 0.837092 5.03049
upperneck 0.598108 0.641293 3.39219
head 1.27659 0.402366 0.230279
lclavicle 7.8474e-15 5.39334e-15 0
lhumerus -58.7698 -43.8545 113.414
lradius 55.1772 0 0
lwrist 25.0773 0 0
lhand 38.9754 24.8255 0
lfingers 7.12502 0 0
lthumb 61.5303 36.8131 0
rclavicle 7.8474e-15 5.39334e-15 0
rhumerus 3.93268 -30.8726 -0.759031
rradius 28.8034 0 0
rwrist -14.5411 0 0
rhand -35.8893 -48.498 0
rfingers 7.12502 0 0
rthumb -9.00125 -798.246 0
958
root 1.10133 15.2065 32.6761 6.46607 -4.47395 364.521
lfemur 7.9573 2.00931 4.63425
ltibia 0.150969 0 0
lfoot -29.3197 -13.3919 0
ltoes -32.3768 0 0
rfemur -33.1336 -16.161 -6.66713
rtibia 50.5346 0 0
rfoot -21.9277 5.663 0
rtoes -41.7267 0 0
lowerback -1.91956 -0.46708 0.700974
upperback -1.26739 -0.644954 -6.4901
thorax -0.31329 -0.358656 -7.16192
lowerneck -6.43237 0.901672 5.14115
upperneck 0.523301 0.72383 3.39539
head 1.24827 0.44142 0.215085
lclavicle 1.06944e-14 1.13545e-14 0
lhumerus -58.7102 -43.8463 113.536
lradius 55.1147 0 0
lwrist 25.0637 0 0
lhand 38.7682 24.8513 0
lfingers 7.12502 0 0
lthumb 61.3567 37.0485 0
rclavicle 1.06944e-14 1.13545e-14 0
rhumerus 4.01534 -30.164 -0.475748
rradius 28.7543 0 0
rwrist -14.2687 0 0
rhand -35.301 -48.2533 0
rfingers 7.12502 0 0
rthumb -8.43361 -798.027 0
959
root 1.0912 15.1933 32.6654 6.41494 -4.67938 364.475
lfemur 8.12241 2.17331 4.73768
ltibia 0.124585 0 0
lfoot -29.4421 -13.2121 0
ltoes -32.5311 0 0
rfemur -33.3696 -16.2293 -6.53391
rtibia 50.7646 0 0
rfoot -22.1359 5.86533 0
rtoes -41.6057 0 0
lowerback -1.87107 -0.477144 0.709156
upperback -1.23707 -0.658579 -6.43101
thorax -0.310227 -0.364743 -7.10282
lowerneck -6.40284 0.964477 5.24877
upperneck 0.45055 0.804099 3.3985
head 1.22073 0.479401 0.200308
lclavicle 1.34632e-14 1.71519e-14 0
lhumerus -58.6523 -43.8384 113.654
lradius 55.0539 0 0
lwrist 25.0505 0 0
lhand 38.5667 24.8764 0
lfingers 7.12502 0 0
lthumb 61.1879 37.2775 0
rclavicle 1.34632e-14 1.71519e-14 0
rhumerus 4.09572 -29.4748 -0.20025
rradius 28.7065 0 0
rwrist -14.0038 0 0
rhand -34.7288 -48.0152 0
rfingers 7.12502 0 0
rthumb -7.88157 -797.813 0
960
root 1.08154 15.1807 32.6553 6.36621 -4.87514 364.43
lfemur 8.27975 2.32958 4.83623
ltibia 0.0994446 0 0
lfoot -29.5587 -13.0407 0
ltoes -32.6781 0 0
rfemur -33.5945 -16.2944 -6.40696
rtibia 50.9838 0 0
rfoot -22.3343 6.05814 0
rtoes -41.4905 0 0
lowerback -1.82487 -0.486735 0.716953
upperback -1.20819 -0.671562 -6.37471
thorax -0.307309 -0.370544 -7.04651
lowerneck -6.3747 1.02432 5.35131
upperneck 0.381225 0.880588 3.40147
head 1.19449 0.515592 0.186228
lclavicle 1.61016e-14 2.26762e-14 0
lhumerus -58.5971 -43.8308 113.768
lradius 54.9959 0 0
lwrist 25.0379 0 0
lhand 38.3747 24.9003 0
lfingers 7.12502 0 0
lthumb 61.027 37.4957 0
rclavicle 1.61016e-14 2.26762e-14 0
rhumerus 4.17231 -28.8182 0.0622737
rradius 28.6609 0 0
rwrist -13.7514 0 0
rhand -34.1836 -47.7884 0
rfingers 7.12502 0 0
rthumb -7.35553 -797.61 0
961
root 1.07255 15.169 32.6459 6.32086 -5.05735 364.388
lfemur 8.4262 2.47504 4.92796
ltibia 0.0760434 0 0
lfoot -29.6672 -12.8812 0
ltoes -32.815 0 0
rfemur -33.8038 -16.355 -6.28879
rtibia 51.1879 0 0
rfoot -22.5189 6.23761 0
rtoes -41.3832 0 0
lowerback -1.78187 -0.495662 0.724211
upperback -1.18131 -0.683647 -6.32231
thorax -0.304592 -0.375943 -6.99409
lowerneck -6.34851 1.08003 5.44676
upperneck 0.316697 0.951784 3.40423
head 1.17006 0.54928 0.173122
lclavicle 1.85574e-14 2.78183e-14 0
lhumerus -58.5457 -43.8237 113.873
lradius 54.9419 0 0
lwrist 25.0261 0 0
lhand 38.196 24.9226 0
lfingers 7.12502 0 0
lthumb 60.8772 37.6987 0
rclavicle 1.85574e-14 2.78183e-14 0
rhumerus 4.2436 -28.2069 0.306632
rradius 28.6185 0 0
rwrist -13.5164 0 0
rhand -33.6761 -47.5773 0
rfingers 7.12502 0 0
rthumb -6.86588 -797.421 0
962
root 1.06441 15.1584 32.6374 6.27984 -5.22215 364.351
lfemur 8.55865 2.6066 5.01093
ltibia 0.0548788 0 0
lfoot -29.7654 -12.737 0
ltoes -32.9388 0 0
rfemur -33.9931 -16.4097 -6.18192
rtibia 51.3724 0 0
rfoot -22.6859 6.39992 0
rtoes -41.2861 0 0
lowerback -1.74297 -0.503736 0.730775
upperback -1.15699 -0.694577 -6.27491
thorax -0.302135 -0.380826 -6.94669
lowerneck -6.32482 1.13041 5.53309
upperneck 0.258336 1.01618 3.40673
head 1.14797 0.579748 0.161268
lclavicle 2.07785e-14 3.24689e-14 0
lhumerus -58.4992 -43.8174 113.968
lradius 54.8931 0 0
lwrist 25.0155 0 0
lhand 38.0343 24.9428 0
lfingers 7.12502 0 0
lthumb 60.7418 37.8824 0
rclavicle 2.07785e-14 3.24689e-14 0
rhumerus 4.30808 -27.6541 0.527636
rradius 28.5802 0 0
rwrist -13.3039 0 0
rhand -33.2171 -47.3863 0
rfingers 7.12502 0 0
rthumb -6.42303 -797.25 0
963
root 1.05733 15.1492 32.63 6.24412 -5.36566 364.318
lfemur 8.674 2.72117 5.08318
ltibia 0.0364478 0 0
lfoot -29.8509 -12.6113 0
ltoes -33.0466 0 0
rfemur -34.158 -16.4575 -6.08885
rtibia 51.5331 0 0
rfoot -22.8313 6.54127 0
rtoes -41.2016 0 0
lowerback -1.7091 -0.510767 0.736491
upperback -1.13581 -0.704095 -6.23363
thorax -0.299996 -0.385078 -6.9054
lowerneck -6.30419 1.17429 5.60827
upperneck 0.207513 1.07225 3.4089
head 1.12873 0.606281 0.150945
lclavicle 2.27128e-14 3.65189e-14 0
lhumerus -58.4587 -43.8118 114.051
lradius 54.8506 0 0
lwrist 25.0063 0 0
lhand 37.8936 24.9603 0
lfingers 7.12502 0 0
lthumb 60.6238 38.0423 0
rclavicle 2.27128e-14 3.65189e-14 0
rhumerus 4.36424 -27.1727 0.720096
rradius 28.5467 0 0
rwrist -13.1189 0 0
rhand -32.8174 -47.22 0
rfingers 7.12502 0 0
rthumb -6.03738 -797.101 0
964
root 1.05149 15.1415 32.6239 6.21466 -5.48402 364.291
lfemur 8.76913 2.81566 5.14277
ltibia 0.0212474 0 0
lfoot -29.9214 -12.5077 0
ltoes -33.1355 0 0
rfemur -34.294 -16.4968 -6.01209
rtibia 51.6656 0 0
rfoot -22.9513 6.65784 0
rtoes -41.1319 0 0
lowerback -1.68117 -0.516566 0.741205
upperback -1.11835 -0.711945 -6.19959
thorax -0.298231 -0.388585 -6.87135
lowerneck -6.28718 1.21047 5.67027
upperneck 0.165598 1.1185 3.41069
head 1.11287 0.628163 0.142432
lclavicle 2.4308e-14 3.9859e-14 0
lhumerus -58.4254 -43.8072 114.119
lradius 54.8156 0 0
lwrist 24.9987 0 0
lhand 37.7775 24.9748 0
lfingers 7.12502 0 0
lthumb 60.5266 38.1742 0
rclavicle 2.4308e-14 3.9859e-14 0
rhumerus 4.41055 -26.7757 0.878821
rradius 28.5192 0 0
rwrist -12.9662 0 0
rhand -32.4878 -47.0829 0
rfingers 7.12502 0 0
rthumb -5.71933 -796.978 0
